<?xml version="1.0" encoding="UTF-8" standalone="no"?>
<!DOCTYPE svg PUBLIC "-//W3C//DTD SVG 1.1//EN" "http://www.w3.org/Graphics/SVG/1.1/DTD/svg11.dtd">
<!-- Created with Vectornator (http://vectornator.io/) -->
<svg height="100%" stroke-miterlimit="10" style="fill-rule:nonzero;clip-rule:evenodd;stroke-linecap:round;stroke-linejoin:round;" version="1.1" viewBox="0 0 296 43" width="100%" xml:space="preserve" xmlns="http://www.w3.org/2000/svg" xmlns:vectornator="http://vectornator.io" xmlns:xlink="http://www.w3.org/1999/xlink">
<defs/>
<clipPath id="ArtboardFrame">
<rect height="43" width="296" x="0" y="0"/>
</clipPath>
<g clip-path="url(#ArtboardFrame)" id="Untitled" vectornator:layerName="Untitled">
<g fill="#f44647" opacity="1" stroke="none" vectornator:layerName="Text 1">
<path d="M27.0745 5.789C27.1365 5.665 27.2605 5.696 27.3845 5.665C28.7175 5.293 30.0815 5.169 31.4455 5.262C32.1585 5.324 32.8715 5.448 33.5845 5.665C34.8555 6.099 35.8165 6.874 36.5295 7.99C37.2425 9.106 37.6765 10.315 37.7695 11.648C37.8315 12.826 37.6455 13.973 37.2735 15.089C36.8085 16.639 36.0645 18.096 35.1655 19.429C33.3365 22.095 31.1045 24.358 28.3765 26.094C28.0045 26.311 27.6635 26.528 27.2915 26.745C28.1285 28.171 29.0585 29.566 30.3295 30.651C31.1665 31.333 32.1275 31.581 33.1505 31.519C33.5845 31.488 34.0185 31.457 34.4215 31.333C35.3825 31.054 35.9405 30.403 36.2195 29.473C36.2815 29.318 36.3125 29.163 36.3435 29.008C36.3745 28.884 36.6535 28.698 36.7465 28.729C36.8705 28.76 37.0255 29.008 37.0255 29.132C36.9635 29.411 36.9325 29.721 36.8705 29.969C36.6225 31.054 35.9095 31.705 34.8865 31.984C32.8405 32.511 30.9805 32.17 29.3375 30.806C28.2525 29.907 27.3535 28.822 26.5785 27.644C26.2685 27.21 26.2685 27.21 25.7725 27.365C25.2765 27.52 24.7495 27.613 24.2225 27.582C24.0675 27.582 24.0055 27.644 24.0055 27.799C24.0365 28.295 24.0055 28.791 24.0365 29.287C24.0675 30.775 24.1605 32.232 24.3155 33.72C24.3775 34.371 24.4705 35.022 24.5945 35.642C24.6565 35.859 24.8735 36.076 25.0905 36.107C25.2145 36.138 25.3075 36.2 25.3695 36.293C25.4935 36.386 25.5555 36.51 25.6795 36.603C25.9275 36.789 25.8965 37.006 25.7725 37.254C25.6485 37.471 25.5865 37.719 25.3075 37.843C24.9045 37.998 24.6255 37.967 24.3465 37.657C23.9745 37.254 23.6955 36.82 23.5095 36.293C23.1375 35.301 22.9205 34.247 22.7655 33.162C22.4865 31.271 22.4865 29.38 22.4245 27.458C22.4245 27.117 22.3625 26.9 22.0525 26.652C21.0605 25.877 20.5645 24.854 20.5645 23.583C20.5645 23.335 20.5955 23.087 20.7195 22.87C20.6885 23.149 20.5955 23.366 20.6265 23.645C20.7195 23.428 20.7505 23.18 20.8125 22.963C20.8125 22.87 20.8745 22.777 20.7815 22.715C20.8435 22.684 20.8435 22.591 20.8435 22.529C20.9985 21.94 21.4325 21.599 22.0525 21.63C22.1145 21.63 22.1765 21.63 22.2385 21.63C22.3625 21.63 22.3935 21.568 22.3935 21.475C22.3935 21.413 22.3935 21.351 22.3935 21.289C22.4245 19.15 22.4245 17.042 22.4865 14.934C22.5175 13.105 22.5795 11.276 22.8275 9.478C22.8895 9.106 22.9825 8.734 23.0755 8.362C23.1065 8.238 23.1685 8.145 23.1065 8.021C23.0755 7.897 23.1685 7.866 23.2305 7.804C23.4475 7.587 23.7265 7.432 23.9745 7.277C25.1215 6.626 26.2995 6.161 27.5395 5.82C27.6945 5.758 27.9115 5.82 27.9735 5.603C28.1285 5.696 28.2835 5.634 28.4075 5.572C28.8105 5.541 29.2135 5.51 29.6165 5.448C30.1125 5.386 30.6085 5.417 31.1355 5.355C30.6705 5.355 30.2365 5.355 29.8025 5.355C29.7405 5.355 29.6785 5.386 29.6165 5.448C29.4615 5.448 29.3065 5.417 29.1515 5.417C28.9035 5.448 28.6245 5.417 28.4075 5.603C28.2835 5.541 28.1285 5.541 28.0045 5.603C27.6635 5.634 27.3845 5.789 27.0745 5.789ZM32.1275 21.01C32.2825 20.917 32.4065 20.824 32.4995 20.669C32.5615 20.576 32.6235 20.483 32.6855 20.39C32.7165 20.359 32.7475 20.297 32.7785 20.266C32.8405 20.173 32.9025 20.08 32.9645 19.987L32.9955 19.987C33.0885 19.925 33.1505 19.77 33.2125 19.646C33.1815 19.553 33.2745 19.491 33.3055 19.398C33.5225 19.088 33.7085 18.809 33.8945 18.499C35.1345 16.577 36.0645 14.531 36.4055 12.237C36.5295 11.4 36.6225 10.532 36.3745 9.664C36.0335 8.486 35.3515 7.587 34.0805 7.246C33.3985 7.06 32.6855 6.936 31.9725 6.905C29.8025 6.75 27.6945 7.153 25.6485 7.897C25.3075 8.021 24.9665 8.145 24.6565 8.331C24.7495 8.486 24.8735 8.641 24.9975 8.734C25.1525 8.858 25.1835 9.013 25.1835 9.168C25.1525 9.664 24.8735 10.067 24.7805 10.532C24.5635 10.656 24.5635 10.904 24.5635 11.09C24.5015 11.834 24.4395 12.547 24.3775 13.26C24.3155 14.5 24.2535 15.709 24.2225 16.918C24.1295 18.654 24.0985 20.359 24.0365 22.095C24.0365 22.25 24.0675 22.374 24.1915 22.467C24.4705 22.684 24.7185 22.963 24.9355 23.242C25.4625 23.862 25.8965 24.513 26.2995 25.164C26.3615 25.288 26.4545 25.381 26.5165 25.474C26.5785 25.598 26.6715 25.66 26.7955 25.567C26.8885 25.505 26.9815 25.474 27.0745 25.412C28.6555 24.544 30.0195 23.366 31.2905 22.064C31.3835 21.971 31.4765 21.847 31.5075 21.692C31.5695 21.723 31.6005 21.692 31.6625 21.661C31.8485 21.444 32.0655 21.258 32.1585 21.01L32.1275 21.01ZM22.3625 22.281C22.1145 22.312 21.8975 22.405 21.7735 22.591C21.3705 23.211 21.1845 23.893 21.2775 24.606C21.3705 25.257 21.8045 25.691 22.3625 26.001C22.3625 24.73 22.3625 23.521 22.3625 22.281ZM24.0055 23.738C24.0055 23.955 24.0055 24.141 24.0055 24.358C24.0055 24.916 23.9745 25.505 23.9745 26.094C23.9745 26.404 24.0365 26.435 24.3465 26.435C24.6565 26.404 24.9665 26.311 25.2455 26.249C25.5555 26.156 25.5865 26.125 25.4315 25.846C25.4005 25.815 25.3695 25.784 25.3695 25.753C24.9975 25.133 24.5945 24.513 24.2225 23.924C24.1915 23.862 24.1605 23.769 24.0055 23.738ZM36.7155 12.02C36.5605 13.229 36.2195 14.407 35.8165 15.554C36.3435 14.438 36.7155 13.26 36.7155 12.02ZM35.5995 16.112C35.6615 16.019 35.7235 15.926 35.6925 15.802C35.6305 15.895 35.5685 15.957 35.5995 16.112ZM27.0745 5.789C26.7955 5.944 26.5165 5.975 26.2375 6.068C26.5165 5.913 26.7645 5.789 27.0745 5.789ZM32.9955 19.987C33.0885 19.925 33.1505 19.77 33.2125 19.646C33.0265 19.708 32.9645 19.832 32.9955 19.987ZM32.7785 20.266C32.8405 20.173 32.9025 20.08 32.9645 19.987C32.7785 20.049 32.7165 20.142 32.7785 20.266ZM32.3135 20.7C32.4375 20.607 32.4375 20.359 32.6855 20.39C32.6235 20.483 32.5615 20.576 32.4995 20.669C32.4375 20.669 32.3755 20.7 32.3135 20.7ZM32.2825 20.793C32.2205 20.886 32.1895 20.948 32.1275 21.01L32.1585 21.01C32.0965 21.041 32.0345 21.072 31.9725 21.103C32.0655 20.979 32.1275 20.855 32.2825 20.793Z"/>
<path d="M41.6755 22.343C41.7065 22.343 41.7375 22.343 41.7375 22.343C41.7375 22.467 41.7375 22.591 41.7375 22.715C41.7375 23.645 41.7065 24.575 41.8305 25.505C41.9235 26.373 42.1405 27.21 42.5745 27.985C42.7605 28.326 43.0085 28.636 43.3805 28.791C43.9075 29.039 44.1865 28.977 44.5585 28.543C44.7755 28.233 44.9305 27.861 45.0855 27.489C45.5815 26.156 45.9225 24.792 46.2635 23.397C46.2635 23.335 46.2945 23.242 46.2635 23.149C46.2635 23.056 46.2325 22.994 46.1085 22.994C46.0155 22.963 45.9535 23.025 45.9225 23.118C45.8915 23.211 45.8605 23.335 45.8295 23.428C45.5195 24.544 45.1785 25.66 44.7135 26.714C44.5585 27.086 44.4035 27.427 44.1865 27.768C44.0935 27.954 43.9695 28.14 43.7835 28.233C43.5355 28.388 43.3495 28.357 43.1945 28.078C43.0395 27.861 42.9465 27.582 42.8535 27.303C42.6985 26.745 42.6675 26.156 42.6365 25.598C42.5745 24.606 42.6055 23.645 42.6365 22.684C42.6365 22.405 42.6365 22.126 42.5745 21.847C42.5125 21.506 42.3265 21.196 41.9855 21.01C41.8305 20.917 41.6445 20.824 41.5515 20.669C41.1795 20.08 40.6525 19.677 40.0635 19.367C39.5985 19.088 39.1335 19.088 38.6995 19.336C38.4205 19.491 38.1725 19.708 38.0175 19.956C37.3045 21.072 36.9325 22.312 37.0255 23.645C37.0565 24.141 37.2735 24.637 37.6455 24.978C37.9555 25.319 38.5755 25.598 39.0715 25.164C39.1955 25.04 39.3505 24.947 39.4745 24.823C39.7845 24.513 40.0945 24.203 40.3735 23.862C40.8075 23.335 41.2415 22.839 41.6755 22.343ZM38.4825 24.172C38.3895 24.079 38.4205 23.986 38.4515 23.893C38.6375 23.056 38.9475 22.219 39.4435 21.506C39.6605 21.227 39.8775 20.979 40.2185 20.824C40.5905 20.7 40.6835 20.731 40.8695 21.072C40.9005 21.103 40.9315 21.165 40.9935 21.227C41.1795 21.475 41.1795 21.475 40.9935 21.723C40.5285 22.312 40.0635 22.901 39.5055 23.428C39.1955 23.707 38.8855 23.986 38.4825 24.172Z"/>
<path d="M45.8915 22.653C45.8915 23.149 45.9535 23.8 46.0155 24.42C46.1705 25.381 46.4185 26.311 46.8525 27.148C47.1005 27.613 47.3485 28.047 47.7825 28.357C48.7745 29.07 49.2705 28.853 49.8595 28.171C49.9215 28.14 49.9525 28.078 49.9835 28.047C50.2935 27.644 50.5725 27.241 50.8205 26.807C51.5955 25.629 52.2155 24.358 52.9285 23.118C53.0525 22.932 53.0215 22.839 52.8355 22.715C52.6805 22.591 52.6185 22.622 52.4945 22.839C52.1845 23.304 51.8745 23.769 51.5645 24.265C51.0685 25.04 50.5725 25.815 49.9835 26.528C49.7045 26.838 49.4565 27.148 49.1465 27.427C48.9295 27.582 48.7125 27.737 48.4645 27.768C48.1545 27.799 48.0925 27.768 47.9685 27.489C47.7515 26.962 47.5655 26.435 47.5035 25.846C47.3175 24.451 47.4415 23.025 47.7825 21.63C47.8445 21.258 47.9685 20.917 48.1855 20.576C48.3405 20.297 48.5885 20.08 48.8985 19.956C49.1465 19.894 49.1775 19.894 49.2085 20.111C49.2395 20.452 49.4565 20.638 49.7045 20.793C49.8285 20.886 49.8905 20.855 49.9215 20.731C49.9525 20.607 49.9835 20.514 50.0145 20.39C50.0765 19.987 49.9835 19.677 49.7045 19.336C49.3635 18.933 48.9295 18.685 48.4955 18.468C47.8135 18.096 47.0695 18.282 46.6355 18.933C46.3875 19.274 46.2635 19.677 46.1705 20.08C45.9535 20.886 45.8915 21.692 45.8915 22.653Z"/>
<path d="M54.1995 24.513C54.1375 24.482 54.1065 24.451 54.1065 24.42C54.0755 24.358 54.0445 24.265 53.9825 24.172C53.6105 23.18 53.3935 22.188 53.2695 21.165C53.2075 20.545 53.1145 19.956 53.1145 19.336C53.1145 19.181 53.1145 19.057 53.3005 18.995C53.6105 18.809 53.8585 18.53 54.0755 18.282C54.6335 17.6 55.0365 16.856 55.4085 16.05C55.9045 14.996 56.3385 13.88 56.7105 12.764C56.9585 12.02 57.0825 11.245 57.0205 10.47C56.9895 9.788 56.8345 9.106 56.2455 8.641C56.0285 8.455 55.8115 8.238 55.5635 8.052C55.3155 7.835 55.0365 7.618 54.6645 7.618C54.1995 7.587 53.8585 7.773 53.5175 8.052C53.1145 8.424 52.8355 8.858 52.6185 9.385C52.4015 9.819 52.2465 10.284 52.1535 10.78C51.7815 12.423 51.5955 14.097 51.5645 15.771C51.5645 18.003 51.7815 20.204 52.3085 22.374C52.5875 23.49 52.9905 24.606 53.7035 25.567C53.8275 25.722 53.9515 25.877 54.1375 26.001C54.6025 26.28 55.0985 26.094 55.1605 25.536C55.2535 24.916 55.3155 24.265 55.3775 23.645C55.4705 22.963 55.6565 22.312 55.9975 21.723C56.1215 21.537 56.2455 21.351 56.4625 21.258C56.5555 21.444 56.5865 21.63 56.5865 21.816C56.5865 22.312 56.5865 22.808 56.5865 23.304C56.5865 24.296 56.6795 25.257 56.8965 26.218C57.0515 26.931 57.2685 27.644 57.7335 28.264C57.8575 28.419 57.9815 28.574 58.1365 28.667C58.5085 28.884 58.9115 28.822 59.1595 28.512C59.4385 28.202 59.6245 27.83 59.8105 27.427C60.3995 26.094 60.9265 24.699 61.2985 23.273C61.3295 23.149 61.3605 23.056 61.3915 22.932C61.4225 22.777 61.4225 22.653 61.2675 22.56C61.1745 22.529 61.1435 22.436 61.0505 22.436C60.9885 22.529 60.9885 22.591 60.9575 22.684C60.6785 23.552 60.3685 24.42 59.9965 25.257C59.6555 26.001 59.3145 26.776 58.8805 27.489C58.7565 27.675 58.6325 27.861 58.4465 27.985C58.3225 28.047 58.1985 28.047 58.1365 27.892C58.0435 27.675 57.9815 27.427 57.9195 27.179C57.6715 26.125 57.5475 25.04 57.5475 23.955C57.5475 23.366 57.5475 22.777 57.4855 22.188C57.4235 21.599 57.2685 21.01 56.7105 20.669C56.6485 20.638 56.5865 20.576 56.5555 20.514C56.2455 20.235 55.9975 20.235 55.7185 20.545C55.4705 20.762 55.3465 21.01 55.1915 21.289C54.8195 22.033 54.6025 22.777 54.4475 23.583C54.3855 23.893 54.3545 24.203 54.1995 24.513ZM53.1455 18.406C53.0525 18.313 53.0835 18.22 53.0835 18.127C53.1145 15.895 53.4865 13.694 54.1995 11.586C54.3855 11.059 54.6335 10.563 54.9435 10.067C55.0985 9.819 55.2845 9.602 55.5015 9.416C55.6875 9.292 55.7185 9.292 55.7805 9.509C55.8425 9.726 55.9045 9.943 55.9355 10.16C56.0905 11.183 55.9355 12.144 55.6875 13.136C55.3775 14.252 54.9745 15.337 54.5095 16.391C54.2615 16.949 53.9825 17.445 53.6105 17.91C53.4865 18.096 53.3315 18.282 53.1455 18.406ZM55.0055 9.695C55.1295 9.478 55.1295 9.478 55.3775 9.354C55.2535 9.478 55.1295 9.571 55.0055 9.695Z"/>
<path d="M67.6845 22.591C67.5915 22.715 67.4985 22.808 67.4365 22.901C66.8165 23.738 66.1965 24.575 65.5455 25.412C65.2045 25.877 64.8635 26.311 64.4605 26.683C64.2435 26.9 63.9955 27.086 63.7165 27.21C63.1585 27.427 62.8795 27.303 62.6625 26.776C62.2905 25.877 62.2285 24.947 62.2905 24.017C62.2905 23.862 62.3525 23.8 62.5385 23.831C62.9725 23.986 63.3755 23.893 63.7165 23.583C64.5845 22.808 65.0185 21.847 64.7705 20.669C64.7395 20.39 64.6155 20.142 64.4295 19.987C63.9955 19.615 63.5925 19.212 63.0965 18.902C62.7555 18.716 62.4455 18.747 62.1355 18.964C61.9495 19.088 61.8255 19.243 61.7015 19.429C61.5465 19.708 61.4225 19.987 61.2985 20.297C60.8645 21.754 60.8025 23.211 61.0505 24.73C61.1745 25.474 61.4535 26.187 61.8255 26.869C62.0735 27.241 62.3215 27.613 62.6935 27.83C63.2205 28.171 63.7785 28.264 64.3365 27.892C64.5225 27.737 64.7085 27.613 64.8945 27.458C65.2975 27.024 65.6385 26.559 65.9485 26.094C66.5685 25.133 67.1885 24.172 67.8085 23.242C68.0255 22.87 68.0255 22.87 67.6845 22.591ZM63.6545 20.545C63.7785 20.731 63.7475 20.948 63.7475 21.165C63.7165 21.816 63.5305 22.405 63.1275 22.932C63.0035 23.118 62.8485 23.273 62.6005 23.304C62.4765 23.335 62.3835 23.304 62.4145 23.149C62.5385 22.343 62.7555 21.537 63.2515 20.855C63.3445 20.731 63.4685 20.576 63.6545 20.545Z"/>
<path d="M75.6515 22.498C75.6515 22.529 75.6205 22.529 75.6205 22.56C75.5585 22.653 75.4965 22.746 75.4655 22.839C75.0005 23.893 74.4425 24.916 73.7915 25.846C73.4195 26.435 73.0165 26.993 72.5205 27.489C72.2105 27.799 71.8695 28.047 71.4355 28.14C70.9705 28.264 70.4435 28.078 70.1955 27.706C69.8235 27.148 69.5135 26.59 69.2965 25.97C68.9865 25.009 68.7385 24.048 68.6145 23.056C68.5215 22.529 68.4905 22.002 68.4285 21.475C68.4285 21.289 68.4595 21.165 68.6145 21.01C69.0175 20.638 69.3895 20.204 69.6995 19.77C71.3115 17.569 72.4275 15.151 73.2025 12.578C73.4815 11.586 73.6365 10.563 73.6055 9.509C73.6055 8.982 73.4815 8.486 73.1405 8.052C72.7065 7.525 72.2415 6.967 71.5905 6.626C71.1255 6.347 70.6605 6.347 70.1955 6.595C69.8545 6.781 69.5755 7.029 69.3585 7.308C68.8935 7.866 68.5525 8.517 68.3045 9.168C67.5605 11.338 67.1885 13.57 67.0645 15.833C66.9095 18.313 67.0335 20.731 67.5605 23.149C67.8705 24.544 68.3045 25.908 69.0485 27.148C69.2965 27.582 69.5755 27.954 69.8855 28.326C70.2885 28.76 70.8155 29.008 71.4045 29.132C71.9625 29.225 72.3965 28.977 72.7995 28.636C73.2025 28.295 73.4815 27.892 73.7605 27.458C74.6285 26.125 75.3415 24.73 75.8995 23.242C76.0235 22.932 75.9615 22.746 75.6515 22.498ZM68.4285 20.266C68.3975 20.204 68.3975 20.173 68.3975 20.142C68.3665 17.073 68.7695 14.066 69.7925 11.152C70.0095 10.594 70.2575 10.036 70.5365 9.478C70.8155 9.013 71.0945 8.579 71.5285 8.238C72.0245 7.866 72.1795 7.928 72.3345 8.517C72.5205 9.199 72.5515 9.912 72.4895 10.656C72.3655 12.299 71.8385 13.849 71.2185 15.368C70.5675 16.98 69.7305 18.499 68.7385 19.925C68.6765 20.049 68.5835 20.142 68.5215 20.235C68.4905 20.235 68.4595 20.235 68.4285 20.266Z"/>
<path d="M85.3545 26.094C85.4165 26.125 85.4475 26.125 85.4475 26.156C85.5405 26.218 85.6025 26.311 85.6955 26.373C86.2845 26.931 86.9045 27.396 87.7105 27.644C88.3305 27.83 88.8885 27.706 89.3845 27.303C89.6325 27.055 89.8805 26.776 90.0975 26.497C90.8415 25.536 91.3995 24.451 92.0195 23.397C92.0505 23.366 92.0505 23.366 92.0505 23.335C92.1435 23.211 92.0195 23.118 91.9575 23.056C91.8645 22.963 91.8025 23.087 91.7405 23.149C91.6475 23.304 91.5545 23.459 91.4615 23.614C90.9655 24.389 90.4695 25.164 89.9115 25.877C89.6635 26.187 89.4155 26.528 89.0745 26.745C88.5785 27.117 88.0515 27.21 87.4935 26.993C86.8115 26.714 86.2845 26.28 85.8195 25.753C85.6645 25.598 85.6645 25.474 85.7575 25.319C86.1295 24.699 86.4395 24.11 86.7805 23.49C87.4005 22.405 88.0515 21.351 88.5785 20.266C88.6715 20.111 88.7335 19.956 88.7955 19.77C88.8575 19.646 88.7955 19.522 88.6715 19.429C88.5785 19.305 88.4855 19.398 88.3925 19.46C88.3615 19.46 88.3305 19.522 88.2685 19.46C88.3305 19.181 88.2995 19.15 88.0205 19.212C87.9585 19.243 87.9275 19.305 87.8655 19.212C87.8655 19.181 87.8655 19.119 87.8965 19.088C87.9275 18.747 87.8035 18.592 87.4315 18.468C87.2145 18.375 87.1215 18.592 87.0285 18.716C86.8735 18.871 86.7495 19.057 86.6255 19.243C86.3155 19.739 86.0365 20.235 85.7885 20.762C85.3855 21.661 85.0135 22.56 84.6105 23.459C84.5795 23.552 84.5485 23.676 84.3935 23.769C83.8975 22.839 83.3085 21.971 82.9365 21.01C82.7815 20.669 82.4715 20.452 82.2235 20.173C82.2235 20.173 82.1615 20.142 82.1305 20.142C81.9445 20.266 81.8825 20.018 81.7275 19.987C81.6035 20.266 81.6965 20.483 81.7585 20.7C81.8825 21.041 82.0685 21.351 82.2545 21.692C82.7815 22.591 83.3395 23.49 83.9595 24.327C84.0835 24.513 84.1145 24.668 84.0215 24.854C83.6185 25.753 83.2155 26.683 82.8745 27.582C82.7195 28.016 82.5645 28.45 82.4405 28.884C82.4095 29.039 82.3785 29.225 82.4715 29.349C82.5645 29.535 82.6885 29.69 82.7815 29.876C82.8435 30.031 83.2775 30.155 83.4015 30.093C83.5875 30.031 83.4945 29.845 83.5565 29.721C83.5875 29.69 83.5875 29.628 83.6185 29.566C84.0835 28.357 84.7345 27.241 85.3545 26.094Z"/>
</g>
<g fill="#f44647" opacity="1" stroke="none" vectornator:layerName="Text 2">
<path d="M286.778 117.367C286.754 117.535 286.754 117.655 286.73 117.775C286.586 118.855 286.514 119.935 286.418 121.015C286.322 122.023 286.274 123.031 286.226 124.063C286.13 125.647 286.058 127.231 286.01 128.815C285.986 130.615 286.01 132.391 286.178 134.191C286.274 135.079 286.394 135.967 286.634 136.831C286.922 137.839 287.354 138.775 287.978 139.591C288.29 140.023 288.698 140.335 289.274 140.335C289.538 140.335 289.73 140.263 289.898 140.071C290.042 139.903 290.114 139.735 290.21 139.543C290.33 139.279 290.306 139.135 290.042 139.015C289.97 138.967 289.922 138.943 289.898 138.847C289.874 138.655 289.658 138.823 289.586 138.703C289.538 138.655 289.466 138.775 289.442 138.823C289.346 139.015 289.25 139.207 289.058 139.351C288.698 139.663 288.554 139.543 288.386 139.279C288.098 138.727 287.882 138.151 287.714 137.551C287.306 135.991 287.162 134.383 287.114 132.775C287.042 130.111 287.234 127.423 287.45 124.759C287.546 123.703 287.666 122.671 287.786 121.639C287.954 120.151 288.194 118.639 288.458 117.151C288.482 116.959 288.554 116.887 288.746 116.863C289.37 116.743 289.97 116.623 290.594 116.551C291.722 116.383 292.85 116.287 294.002 116.335C294.338 116.359 294.674 116.407 295.01 116.527C295.226 116.599 295.37 116.695 295.322 116.959C295.298 117.103 295.37 117.247 295.442 117.367C295.49 117.439 295.562 117.463 295.634 117.463C295.706 117.439 295.73 117.367 295.73 117.295C295.754 117.103 295.73 116.911 295.634 116.719C295.394 116.287 295.058 115.999 294.578 115.879C294.218 115.783 293.834 115.735 293.45 115.687C292.394 115.615 291.338 115.663 290.258 115.735C289.802 115.783 289.346 115.855 288.866 115.927C288.866 115.807 288.938 115.735 288.986 115.639C289.082 115.351 289.082 115.231 288.842 115.039C288.722 114.895 288.554 114.799 288.482 114.655C288.338 114.367 288.026 114.463 287.834 114.295C287.786 114.271 287.714 114.319 287.666 114.367C287.522 114.463 287.45 114.607 287.378 114.775C287.21 115.183 287.114 115.615 287.042 116.047C286.994 116.215 286.922 116.311 286.73 116.359C285.818 116.551 284.93 116.815 284.042 117.151C282.914 117.559 281.786 118.063 280.754 118.735C280.418 118.951 280.394 119.071 280.586 119.431C280.658 119.599 280.754 119.743 280.946 119.767C281.09 119.791 281.234 119.791 281.402 119.815C281.45 119.815 281.522 119.767 281.474 119.695C281.354 119.551 281.498 119.503 281.594 119.455C282.194 119.167 282.794 118.879 283.418 118.591C284.378 118.159 285.386 117.751 286.418 117.439C286.514 117.415 286.61 117.367 286.778 117.367ZM286.778 134.047C286.778 133.999 286.778 133.975 286.778 133.951C286.778 133.975 286.778 133.999 286.778 134.047ZM286.73 132.775C286.73 132.775 286.73 132.775 286.73 132.799C286.73 132.799 286.73 132.799 286.73 132.823C286.73 132.799 286.73 132.799 286.73 132.799C286.73 132.775 286.73 132.775 286.73 132.775ZM286.73 133.279C286.73 133.303 286.73 133.303 286.73 133.303C286.73 133.327 286.73 133.327 286.73 133.327C286.73 133.327 286.73 133.327 286.73 133.303C286.73 133.303 286.73 133.303 286.73 133.279Z"/>
<path d="M295.658 127.759C295.586 127.855 295.514 127.927 295.466 127.999C294.986 128.647 294.506 129.295 294.002 129.943C293.738 130.303 293.474 130.639 293.162 130.927C292.994 131.095 292.802 131.239 292.586 131.335C292.154 131.503 291.938 131.407 291.77 130.999C291.482 130.303 291.434 129.583 291.482 128.863C291.482 128.743 291.53 128.695 291.674 128.719C292.01 128.839 292.322 128.767 292.586 128.527C293.258 127.927 293.594 127.183 293.402 126.271C293.378 126.055 293.282 125.863 293.138 125.743C292.802 125.455 292.49 125.143 292.106 124.903C291.842 124.759 291.602 124.783 291.362 124.951C291.218 125.047 291.122 125.167 291.026 125.311C290.906 125.527 290.81 125.743 290.714 125.983C290.378 127.111 290.33 128.239 290.522 129.415C290.618 129.991 290.834 130.543 291.122 131.071C291.314 131.359 291.506 131.647 291.794 131.815C292.202 132.079 292.634 132.151 293.066 131.863C293.21 131.743 293.354 131.647 293.498 131.527C293.81 131.191 294.074 130.831 294.314 130.471C294.794 129.727 295.274 128.983 295.754 128.263C295.922 127.975 295.922 127.975 295.658 127.759ZM292.538 126.175C292.634 126.319 292.61 126.487 292.61 126.655C292.586 127.159 292.442 127.615 292.13 128.023C292.034 128.167 291.914 128.287 291.722 128.311C291.626 128.335 291.554 128.311 291.578 128.191C291.674 127.567 291.842 126.943 292.226 126.415C292.298 126.319 292.394 126.199 292.538 126.175Z"/>
<path d="M297.242 130.471C297.29 130.495 297.314 130.495 297.314 130.519C297.386 130.567 297.434 130.639 297.506 130.687C297.962 131.119 298.442 131.479 299.066 131.671C299.546 131.815 299.978 131.719 300.362 131.407C300.554 131.215 300.746 130.999 300.914 130.783C301.49 130.039 301.922 129.199 302.402 128.383C302.426 128.359 302.426 128.359 302.426 128.335C302.498 128.239 302.402 128.167 302.354 128.119C302.282 128.047 302.234 128.143 302.186 128.191C302.114 128.311 302.042 128.431 301.97 128.551C301.586 129.151 301.202 129.751 300.77 130.303C300.578 130.543 300.386 130.807 300.122 130.975C299.738 131.263 299.33 131.335 298.898 131.167C298.37 130.951 297.962 130.615 297.602 130.207C297.482 130.087 297.482 129.991 297.554 129.871C297.842 129.391 298.082 128.935 298.346 128.455C298.826 127.615 299.33 126.799 299.738 125.959C299.81 125.839 299.858 125.719 299.906 125.575C299.954 125.479 299.906 125.383 299.81 125.311C299.738 125.215 299.666 125.287 299.594 125.335C299.57 125.335 299.546 125.383 299.498 125.335C299.546 125.119 299.522 125.095 299.306 125.143C299.258 125.167 299.234 125.215 299.186 125.143C299.186 125.119 299.186 125.071 299.21 125.047C299.234 124.783 299.138 124.663 298.85 124.567C298.682 124.495 298.61 124.663 298.538 124.759C298.418 124.879 298.322 125.023 298.226 125.167C297.986 125.551 297.77 125.935 297.578 126.343C297.266 127.039 296.978 127.735 296.666 128.431C296.642 128.503 296.618 128.599 296.498 128.671C296.114 127.951 295.658 127.279 295.37 126.535C295.25 126.271 295.01 126.103 294.818 125.887C294.818 125.887 294.77 125.863 294.746 125.863C294.602 125.959 294.554 125.767 294.434 125.743C294.338 125.959 294.41 126.127 294.458 126.295C294.554 126.559 294.698 126.799 294.842 127.063C295.25 127.759 295.682 128.455 296.162 129.103C296.258 129.247 296.282 129.367 296.21 129.511C295.898 130.207 295.586 130.927 295.322 131.623C295.202 131.959 295.082 132.295 294.986 132.631C294.962 132.751 294.938 132.895 295.01 132.991C295.082 133.135 295.178 133.255 295.25 133.399C295.298 133.519 295.634 133.615 295.73 133.567C295.874 133.519 295.802 133.375 295.85 133.279C295.874 133.255 295.874 133.207 295.898 133.159C296.258 132.223 296.762 131.359 297.242 130.471Z"/>
<path d="M304.802 118.231C304.898 117.943 305.018 117.679 305.066 117.391C305.09 117.223 305.066 117.055 304.946 116.911C304.706 116.599 304.514 116.263 304.058 116.215C304.01 116.215 303.962 116.191 303.914 116.143C303.674 115.999 303.53 115.999 303.314 116.191C303.122 116.383 303.002 116.623 302.882 116.863C302.69 117.319 302.57 117.823 302.45 118.303C302.354 118.807 302.282 119.287 302.234 119.791C302.21 119.959 302.162 120.079 301.97 120.151C301.754 120.199 301.514 120.295 301.298 120.391C300.434 120.751 299.546 121.111 298.778 121.663C298.49 121.879 298.226 122.095 297.986 122.359C297.818 122.527 297.746 122.695 297.77 122.935C297.77 123.151 297.818 123.199 298.058 123.247C298.082 123.271 298.13 123.271 298.13 123.271C298.226 123.415 298.322 123.343 298.37 123.247C298.658 122.815 299.09 122.527 299.498 122.239C300.266 121.735 301.082 121.351 301.898 120.967C301.97 120.943 302.018 120.919 302.09 120.943C302.138 121.039 302.114 121.135 302.114 121.255C301.994 122.455 301.994 123.655 301.994 124.855C301.994 126.295 302.066 127.759 302.354 129.175C302.618 130.471 302.954 131.743 303.434 132.967C303.554 133.255 303.674 133.519 303.818 133.759C304.058 134.119 304.37 134.407 304.802 134.503C304.922 134.527 305.042 134.527 305.138 134.479C305.426 134.383 305.618 134.191 305.81 133.999C305.906 133.879 305.81 133.807 305.786 133.711C305.762 133.615 305.69 133.543 305.594 133.567C305.402 133.567 305.186 133.543 305.042 133.735C305.018 133.783 304.97 133.807 304.922 133.831C304.61 133.999 304.466 133.951 304.322 133.663C304.178 133.423 304.082 133.159 303.986 132.895C303.482 131.311 303.218 129.703 303.098 128.047C303.026 126.607 303.05 125.167 303.146 123.751C303.242 122.671 303.338 121.591 303.53 120.511C303.554 120.367 303.602 120.295 303.746 120.247C304.682 119.935 305.618 119.647 306.602 119.479C306.914 119.431 307.226 119.407 307.562 119.407C307.874 119.431 308.162 119.479 308.33 119.815C308.354 119.887 308.426 119.935 308.498 119.935C308.57 119.935 308.642 120.007 308.69 119.935C308.738 119.863 308.69 119.815 308.666 119.743C308.426 119.383 308.09 119.119 307.658 118.999C307.082 118.879 306.53 118.951 305.978 119.047C305.282 119.143 304.61 119.311 303.938 119.503C303.746 119.551 303.722 119.527 303.77 119.335C303.866 118.855 303.986 118.351 304.178 117.895C304.226 117.799 304.25 117.703 304.37 117.631C304.322 117.967 304.466 118.159 304.802 118.231ZM302.978 117.247C302.93 117.223 302.93 117.175 302.93 117.127C303.05 116.839 303.17 116.551 303.41 116.335C303.506 116.239 303.626 116.143 303.794 116.215C303.746 116.359 303.578 116.359 303.506 116.455C303.41 116.551 303.338 116.623 303.242 116.719C303.338 116.743 303.29 116.815 303.266 116.863C302.834 117.751 302.666 118.711 302.522 119.695C302.498 119.743 302.498 119.791 302.474 119.863C302.474 119.887 302.45 119.887 302.426 119.935C302.354 119.575 302.69 117.943 302.978 117.247ZM302.33 120.847C302.138 123.103 302.114 125.383 302.21 127.663C302.09 126.511 302.042 125.359 302.066 124.231C302.09 123.079 302.138 121.951 302.33 120.847ZM302.258 127.951C302.282 127.999 302.282 128.071 302.258 128.143C302.21 128.071 302.258 128.023 302.258 127.951Z"/>
</g>
</g>
</svg>
